<svg width="36" height="36" viewBox="0 0 36 36" fill="none" xmlns="http://www.w3.org/2000/svg">
<path d="M32.1641 16.5831C31.6414 16.0671 30.9888 16.0671 30.4694 16.5831C30.0732 16.976 29.677 17.3689 29.2874 17.7684C29.1809 17.8783 29.091 17.9016 28.9612 17.8283C28.7048 17.6885 28.4318 17.5753 28.1854 17.4221C27.0367 16.6997 26.0745 15.7707 25.2222 14.7253C24.7993 14.2059 24.4231 13.6499 24.1601 13.0239C24.1068 12.8974 24.1168 12.8142 24.22 12.711C24.6162 12.3281 25.0024 11.9352 25.392 11.5423C25.9347 10.9963 25.9347 10.3571 25.3887 9.8077C25.079 9.49473 24.7694 9.18842 24.4597 8.87545C24.1401 8.55582 23.8238 8.23287 23.5009 7.91657C22.9781 7.40716 22.3256 7.40716 21.8062 7.9199C21.4066 8.31277 21.0237 8.71564 20.6176 9.10185C20.2413 9.4581 20.0515 9.89426 20.0116 10.4037C19.9483 11.2327 20.1514 12.0151 20.4378 12.7776C21.0237 14.3557 21.916 15.7574 22.9981 17.0426C24.4597 18.7806 26.2044 20.1556 28.2453 21.1478C29.1643 21.594 30.1165 21.9369 31.1519 21.9935C31.8644 22.0334 32.4837 21.8536 32.9798 21.2976C33.3194 20.9181 33.7023 20.5718 34.0619 20.2089C34.5946 19.6695 34.5979 19.017 34.0685 18.4842C33.4359 17.8483 32.8 17.2157 32.1641 16.5831Z" fill="#2E363E"/>
<path d="M31.5284 13.9305L32.7569 13.7208C32.5638 12.5921 32.0311 11.57 31.2221 10.7576C30.3664 9.90192 29.2843 9.36254 28.0924 9.19607L27.9192 10.4313C28.8415 10.5611 29.6805 10.9773 30.3431 11.6399C30.969 12.2658 31.3785 13.0582 31.5284 13.9305Z" fill="#2E363E"/>
<path d="M33.4494 8.58982C32.031 7.17148 30.2364 6.27586 28.2554 5.99951L28.0823 7.23474C29.7936 7.47446 31.3452 8.25022 32.5704 9.47213C33.7324 10.6341 34.4948 12.1024 34.7712 13.7172L35.9997 13.5074C35.6768 11.6363 34.7945 9.93825 33.4494 8.58982Z" fill="#2E363E"/>
</svg>
